<svg width="204" height="64" viewBox="0 0 204 64" fill="none" xmlns="http://www.w3.org/2000/svg">
<rect x="0.782438" y="1.46066" width="201.869" height="61.0302" rx="8.60682" fill="black"/>
<path fill-rule="evenodd" clip-rule="evenodd" d="M40.5556 32.9545C40.5898 30.2997 41.9816 27.8475 44.2433 26.4571C42.81 24.41 40.4954 23.1587 37.9977 23.0806C35.3699 22.8047 32.8223 24.653 31.4832 24.653C30.1183 24.653 28.0565 23.1079 25.8364 23.1536C22.9153 23.248 20.258 24.8686 18.8368 27.4224C15.8104 32.6623 18.0678 40.3631 20.9669 44.5986C22.4174 46.6726 24.1126 48.9893 26.3308 48.9072C28.5013 48.8171 29.312 47.5231 31.9321 47.5231C34.5278 47.5231 35.2884 48.9072 37.5515 48.8549C39.8807 48.8171 41.3481 46.7717 42.7477 44.6781C43.7899 43.2003 44.5918 41.567 45.1239 39.8387C42.3576 38.6687 40.5588 35.9581 40.5556 32.9545Z" fill="white"/>
<path fill-rule="evenodd" clip-rule="evenodd" d="M36.2809 20.2951C37.5508 18.7706 38.1765 16.8111 38.025 14.8328C36.0848 15.0365 34.2926 15.9638 33.0055 17.4298C31.7346 18.8763 31.0907 20.7686 31.2158 22.69C33.182 22.7102 35.0488 21.8276 36.2809 20.2951Z" fill="white"/>
<path d="M65.0315 22.1582V14.3557H67.2849C67.9046 14.3557 68.4257 14.4449 68.8482 14.6233C69.2707 14.7923 69.6134 15.0458 69.8763 15.3839C70.1486 15.7125 70.3411 16.1162 70.4538 16.5951C70.5758 17.0645 70.6369 17.5997 70.6369 18.2006C70.6369 18.8203 70.5711 19.3508 70.4397 19.7921C70.3176 20.224 70.158 20.5855 69.9608 20.8766C69.7637 21.1676 69.5383 21.3977 69.2848 21.5667C69.0407 21.7357 68.7919 21.8671 68.5384 21.961C68.2849 22.0455 68.0454 22.1019 67.8201 22.13C67.5947 22.1488 67.407 22.1582 67.2567 22.1582H65.0315ZM63.6935 13.229V23.2849H67.1441C67.9797 23.2849 68.7027 23.1675 69.313 22.9328C69.9233 22.6981 70.4256 22.3601 70.82 21.9188C71.2143 21.4681 71.5054 20.9188 71.6932 20.271C71.8809 19.6137 71.9748 18.8626 71.9748 18.0175C71.9748 16.4026 71.557 15.2008 70.7214 14.4121C69.8857 13.6234 68.6933 13.229 67.1441 13.229H63.6935ZM74.5677 19.6513C74.5677 19.21 74.624 18.8203 74.7367 18.4823C74.8588 18.1349 75.0231 17.8438 75.2296 17.6091C75.4362 17.3744 75.6756 17.196 75.9479 17.0739C76.2296 16.9519 76.5254 16.8908 76.8352 16.8908C77.145 16.8908 77.4361 16.9519 77.7084 17.0739C77.9901 17.196 78.2342 17.3744 78.4408 17.6091C78.6473 17.8438 78.8069 18.1349 78.9196 18.4823C79.0417 18.8203 79.1027 19.21 79.1027 19.6513C79.1027 20.0926 79.0417 20.4869 78.9196 20.8343C78.8069 21.1723 78.6473 21.4587 78.4408 21.6934C78.2342 21.9188 77.9901 22.0925 77.7084 22.2145C77.4361 22.3366 77.145 22.3976 76.8352 22.3976C76.5254 22.3976 76.2296 22.3366 75.9479 22.2145C75.6756 22.0925 75.4362 21.9188 75.2296 21.6934C75.0231 21.4587 74.8588 21.1723 74.7367 20.8343C74.624 20.4869 74.5677 20.0926 74.5677 19.6513ZM73.3001 19.6513C73.3001 20.1865 73.3753 20.6841 73.5255 21.1442C73.6757 21.6042 73.9011 22.008 74.2015 22.3554C74.502 22.6934 74.8728 22.961 75.3141 23.1582C75.7554 23.3459 76.2625 23.4398 76.8352 23.4398C77.4173 23.4398 77.9244 23.3459 78.3563 23.1582C78.7976 22.961 79.1684 22.6934 79.4689 22.3554C79.7693 22.008 79.9947 21.6042 80.1449 21.1442C80.2951 20.6841 80.3703 20.1865 80.3703 19.6513C80.3703 19.1161 80.2951 18.6185 80.1449 18.1584C79.9947 17.6889 79.7693 17.2852 79.4689 16.9472C79.1684 16.5998 78.7976 16.3275 78.3563 16.1303C77.9244 15.9331 77.4173 15.8345 76.8352 15.8345C76.2625 15.8345 75.7554 15.9331 75.3141 16.1303C74.8728 16.3275 74.502 16.5998 74.2015 16.9472C73.9011 17.2852 73.6757 17.6889 73.5255 18.1584C73.3753 18.6185 73.3001 19.1161 73.3001 19.6513ZM89.2744 23.2849L91.5982 16.0035H90.3588L88.7251 21.961H88.6969L87.1759 16.0035H85.8661L84.4013 21.961H84.3732L82.7253 16.0035H81.4015L83.7394 23.2849H85.0351L86.4998 17.4964H86.528L88.0068 23.2849H89.2744ZM93.018 16.0035V23.2849H94.2152V19.1724C94.2152 18.8438 94.2574 18.5433 94.3419 18.2711C94.4358 17.9894 94.5719 17.7453 94.7503 17.5387C94.9287 17.3321 95.1494 17.1725 95.4123 17.0598C95.6846 16.9472 96.0038 16.8908 96.37 16.8908C96.8301 16.8908 97.1915 17.0223 97.4544 17.2852C97.7173 17.5481 97.8488 17.9049 97.8488 18.3556V23.2849H99.0459V18.4964C99.0459 18.102 99.0037 17.7453 98.9192 17.426C98.8441 17.0974 98.7079 16.8157 98.5107 16.581C98.3136 16.3463 98.0554 16.1632 97.7361 16.0317C97.4169 15.9003 97.0178 15.8345 96.539 15.8345C95.4592 15.8345 94.6705 16.2758 94.1729 17.1584H94.1447V16.0035H93.018ZM101.196 13.229V23.2849H102.393V13.229H101.196ZM105.403 19.6513C105.403 19.21 105.459 18.8203 105.572 18.4823C105.694 18.1349 105.858 17.8438 106.065 17.6091C106.271 17.3744 106.511 17.196 106.783 17.0739C107.064 16.9519 107.36 16.8908 107.67 16.8908C107.98 16.8908 108.271 16.9519 108.543 17.0739C108.825 17.196 109.069 17.3744 109.276 17.6091C109.482 17.8438 109.642 18.1349 109.755 18.4823C109.877 18.8203 109.938 19.21 109.938 19.6513C109.938 20.0926 109.877 20.4869 109.755 20.8343C109.642 21.1723 109.482 21.4587 109.276 21.6934C109.069 21.9188 108.825 22.0925 108.543 22.2145C108.271 22.3366 107.98 22.3976 107.67 22.3976C107.36 22.3976 107.064 22.3366 106.783 22.2145C106.511 22.0925 106.271 21.9188 106.065 21.6934C105.858 21.4587 105.694 21.1723 105.572 20.8343C105.459 20.4869 105.403 20.0926 105.403 19.6513ZM104.135 19.6513C104.135 20.1865 104.21 20.6841 104.36 21.1442C104.511 21.6042 104.736 22.008 105.036 22.3554C105.337 22.6934 105.708 22.961 106.149 23.1582C106.59 23.3459 107.097 23.4398 107.67 23.4398C108.252 23.4398 108.759 23.3459 109.191 23.1582C109.632 22.961 110.003 22.6934 110.304 22.3554C110.604 22.008 110.83 21.6042 110.98 21.1442C111.13 20.6841 111.205 20.1865 111.205 19.6513C111.205 19.1161 111.13 18.6185 110.98 18.1584C110.83 17.6889 110.604 17.2852 110.304 16.9472C110.003 16.5998 109.632 16.3275 109.191 16.1303C108.759 15.9331 108.252 15.8345 107.67 15.8345C107.097 15.8345 106.59 15.9331 106.149 16.1303C105.708 16.3275 105.337 16.5998 105.036 16.9472C104.736 17.2852 104.511 17.6889 104.36 18.1584C104.21 18.6185 104.135 19.1161 104.135 19.6513ZM119.349 23.2567C119.142 23.3788 118.856 23.4398 118.49 23.4398C118.18 23.4398 117.931 23.3553 117.743 23.1863C117.565 23.0079 117.476 22.7216 117.476 22.3272C117.147 22.7216 116.762 23.0079 116.321 23.1863C115.889 23.3553 115.419 23.4398 114.912 23.4398C114.584 23.4398 114.269 23.4023 113.969 23.3272C113.678 23.252 113.424 23.1347 113.208 22.9751C112.992 22.8154 112.818 22.6089 112.687 22.3554C112.565 22.0925 112.504 21.7779 112.504 21.4118C112.504 20.9986 112.574 20.6606 112.715 20.3977C112.856 20.1348 113.039 19.9236 113.264 19.7639C113.499 19.5949 113.762 19.4682 114.053 19.3837C114.354 19.2992 114.659 19.2288 114.969 19.1724C115.297 19.1067 115.607 19.0597 115.898 19.0316C116.199 18.994 116.462 18.9471 116.687 18.8907C116.912 18.825 117.091 18.7358 117.222 18.6231C117.353 18.5011 117.419 18.3274 117.419 18.102C117.419 17.8391 117.368 17.6279 117.264 17.4683C117.17 17.3087 117.044 17.1866 116.884 17.1021C116.734 17.0176 116.56 16.9612 116.363 16.9331C116.175 16.9049 115.987 16.8908 115.8 16.8908C115.293 16.8908 114.87 16.9894 114.532 17.1866C114.194 17.3744 114.011 17.7359 113.983 18.2711H112.786C112.804 17.8204 112.898 17.4401 113.067 17.1303C113.236 16.8204 113.462 16.5716 113.743 16.3838C114.025 16.1866 114.344 16.0458 114.701 15.9613C115.067 15.8768 115.457 15.8345 115.87 15.8345C116.199 15.8345 116.523 15.858 116.842 15.905C117.17 15.9519 117.466 16.0505 117.729 16.2007C117.992 16.3416 118.203 16.5434 118.363 16.8063C118.522 17.0692 118.602 17.4119 118.602 17.8345V21.5808C118.602 21.8624 118.616 22.069 118.645 22.2005C118.682 22.3319 118.795 22.3976 118.983 22.3976C119.086 22.3976 119.208 22.3742 119.349 22.3272V23.2567ZM117.405 19.5245C117.255 19.6372 117.058 19.7217 116.814 19.778C116.569 19.825 116.311 19.8672 116.039 19.9048C115.776 19.9329 115.509 19.9705 115.236 20.0175C114.964 20.055 114.72 20.1207 114.504 20.2146C114.288 20.3085 114.11 20.4447 113.969 20.6231C113.837 20.7921 113.771 21.0268 113.771 21.3273C113.771 21.5244 113.809 21.6934 113.884 21.8343C113.969 21.9657 114.072 22.0737 114.194 22.1582C114.325 22.2427 114.476 22.3037 114.645 22.3413C114.814 22.3788 114.992 22.3976 115.18 22.3976C115.574 22.3976 115.912 22.346 116.194 22.2427C116.476 22.13 116.706 21.9939 116.884 21.8343C117.062 21.6653 117.194 21.4869 117.278 21.2991C117.363 21.1019 117.405 20.9188 117.405 20.7498V19.5245ZM121.618 19.7076C121.618 19.3508 121.655 19.0034 121.73 18.6654C121.806 18.3274 121.928 18.0269 122.097 17.764C122.266 17.5011 122.491 17.2899 122.773 17.1303C123.054 16.9706 123.397 16.8908 123.801 16.8908C124.214 16.8908 124.566 16.9706 124.857 17.1303C125.148 17.2805 125.383 17.4824 125.561 17.7359C125.749 17.9894 125.885 18.2851 125.97 18.6231C126.054 18.9518 126.096 19.2945 126.096 19.6513C126.096 19.9893 126.054 20.3226 125.97 20.6512C125.895 20.9799 125.768 21.2756 125.589 21.5385C125.411 21.792 125.181 21.9986 124.899 22.1582C124.618 22.3178 124.275 22.3976 123.871 22.3976C123.486 22.3976 123.148 22.3225 122.857 22.1723C122.575 22.0221 122.341 21.8202 122.153 21.5667C121.975 21.3132 121.838 21.0268 121.745 20.7076C121.66 20.3789 121.618 20.0456 121.618 19.7076ZM127.251 23.2849V13.229H126.054V16.9753H126.026C125.895 16.7594 125.73 16.581 125.533 16.4401C125.345 16.2899 125.143 16.1726 124.927 16.088C124.712 15.9942 124.496 15.9284 124.28 15.8909C124.064 15.8533 123.862 15.8345 123.674 15.8345C123.12 15.8345 122.632 15.9378 122.209 16.1444C121.796 16.3416 121.449 16.6138 121.167 16.9612C120.895 17.2993 120.688 17.6983 120.547 18.1584C120.416 18.6185 120.35 19.1067 120.35 19.6231C120.35 20.1395 120.421 20.6278 120.561 21.0878C120.702 21.5479 120.909 21.9516 121.181 22.299C121.463 22.6464 121.81 22.9234 122.223 23.13C122.646 23.3366 123.139 23.4398 123.702 23.4398C124.209 23.4398 124.674 23.3506 125.096 23.1722C125.519 22.9938 125.829 22.7028 126.026 22.299H126.054V23.2849H127.251ZM134.449 19.6513C134.449 19.21 134.506 18.8203 134.619 18.4823C134.741 18.1349 134.905 17.8438 135.111 17.6091C135.318 17.3744 135.557 17.196 135.83 17.0739C136.111 16.9519 136.407 16.8908 136.717 16.8908C137.027 16.8908 137.318 16.9519 137.59 17.0739C137.872 17.196 138.116 17.3744 138.323 17.6091C138.529 17.8438 138.689 18.1349 138.801 18.4823C138.923 18.8203 138.985 19.21 138.985 19.6513C138.985 20.0926 138.923 20.4869 138.801 20.8343C138.689 21.1723 138.529 21.4587 138.323 21.6934C138.116 21.9188 137.872 22.0925 137.59 22.2145C137.318 22.3366 137.027 22.3976 136.717 22.3976C136.407 22.3976 136.111 22.3366 135.83 22.2145C135.557 22.0925 135.318 21.9188 135.111 21.6934C134.905 21.4587 134.741 21.1723 134.619 20.8343C134.506 20.4869 134.449 20.0926 134.449 19.6513ZM133.182 19.6513C133.182 20.1865 133.257 20.6841 133.407 21.1442C133.558 21.6042 133.783 22.008 134.083 22.3554C134.384 22.6934 134.755 22.961 135.196 23.1582C135.637 23.3459 136.144 23.4398 136.717 23.4398C137.299 23.4398 137.806 23.3459 138.238 23.1582C138.679 22.961 139.05 22.6934 139.351 22.3554C139.651 22.008 139.876 21.6042 140.027 21.1442C140.177 20.6841 140.252 20.1865 140.252 19.6513C140.252 19.1161 140.177 18.6185 140.027 18.1584C139.876 17.6889 139.651 17.2852 139.351 16.9472C139.05 16.5998 138.679 16.3275 138.238 16.1303C137.806 15.9331 137.299 15.8345 136.717 15.8345C136.144 15.8345 135.637 15.9331 135.196 16.1303C134.755 16.3275 134.384 16.5998 134.083 16.9472C133.783 17.2852 133.558 17.6889 133.407 18.1584C133.257 18.6185 133.182 19.1161 133.182 19.6513ZM141.945 16.0035V23.2849H143.142V19.1724C143.142 18.8438 143.185 18.5433 143.269 18.2711C143.363 17.9894 143.499 17.7453 143.678 17.5387C143.856 17.3321 144.077 17.1725 144.339 17.0598C144.612 16.9472 144.931 16.8908 145.297 16.8908C145.757 16.8908 146.119 17.0223 146.382 17.2852C146.645 17.5481 146.776 17.9049 146.776 18.3556V23.2849H147.973V18.4964C147.973 18.102 147.931 17.7453 147.846 17.426C147.771 17.0974 147.635 16.8157 147.438 16.581C147.241 16.3463 146.983 16.1632 146.663 16.0317C146.344 15.9003 145.945 15.8345 145.466 15.8345C144.386 15.8345 143.598 16.2758 143.1 17.1584H143.072V16.0035H141.945ZM155.916 16.0035V13.8205H154.719V16.0035H153.48V17.0598H154.719V21.6934C154.719 22.0314 154.752 22.3037 154.818 22.5103C154.883 22.7169 154.982 22.8765 155.113 22.9892C155.254 23.1018 155.433 23.1816 155.649 23.2286C155.874 23.2661 156.142 23.2849 156.451 23.2849H157.367V22.2286H156.818C156.63 22.2286 156.475 22.2239 156.353 22.2145C156.24 22.1958 156.151 22.1629 156.085 22.1159C156.019 22.069 155.973 22.0033 155.944 21.9188C155.926 21.8343 155.916 21.7216 155.916 21.5808V17.0598H157.367V16.0035H155.916ZM158.978 13.229V23.2849H160.176V19.1724C160.176 18.8438 160.218 18.5433 160.302 18.2711C160.396 17.9894 160.532 17.7453 160.711 17.5387C160.889 17.3321 161.11 17.1725 161.373 17.0598C161.645 16.9472 161.964 16.8908 162.33 16.8908C162.79 16.8908 163.152 17.0223 163.415 17.2852C163.678 17.5481 163.809 17.9049 163.809 18.3556V23.2849H165.006V18.4964C165.006 18.102 164.964 17.7453 164.88 17.426C164.804 17.0974 164.668 16.8157 164.471 16.581C164.274 16.3463 164.016 16.1632 163.697 16.0317C163.377 15.9003 162.978 15.8345 162.499 15.8345C162.283 15.8345 162.058 15.858 161.823 15.905C161.598 15.9519 161.377 16.027 161.161 16.1303C160.955 16.2242 160.767 16.3509 160.598 16.5106C160.429 16.6608 160.298 16.8486 160.204 17.0739H160.176V13.229H158.978ZM172.142 18.9471H167.959C167.978 18.6654 168.039 18.4025 168.142 18.1584C168.246 17.9049 168.386 17.6842 168.565 17.4964C168.743 17.3087 168.954 17.1631 169.199 17.0598C169.452 16.9472 169.734 16.8908 170.044 16.8908C170.344 16.8908 170.616 16.9472 170.861 17.0598C171.114 17.1631 171.33 17.3087 171.508 17.4964C171.696 17.6748 171.842 17.8908 171.945 18.1443C172.058 18.3978 172.123 18.6654 172.142 18.9471ZM173.297 20.9752H172.114C172.011 21.454 171.795 21.8108 171.466 22.0455C171.147 22.2803 170.734 22.3976 170.227 22.3976C169.832 22.3976 169.49 22.3319 169.199 22.2005C168.908 22.069 168.668 21.8953 168.48 21.6793C168.293 21.454 168.156 21.2005 168.072 20.9188C167.987 20.6278 167.95 20.3226 167.959 20.0034H173.41C173.428 19.5621 173.386 19.0973 173.283 18.6091C173.189 18.1208 173.011 17.6701 172.748 17.257C172.494 16.8439 172.152 16.5059 171.72 16.243C171.297 15.9707 170.762 15.8345 170.114 15.8345C169.616 15.8345 169.156 15.9284 168.734 16.1162C168.321 16.304 167.959 16.5669 167.649 16.9049C167.349 17.2429 167.114 17.642 166.945 18.102C166.776 18.5621 166.692 19.0691 166.692 19.6231C166.71 20.1771 166.79 20.6888 166.931 21.1582C167.081 21.6277 167.302 22.0314 167.593 22.3695C167.884 22.7075 168.241 22.9704 168.663 23.1582C169.095 23.3459 169.602 23.4398 170.184 23.4398C171.011 23.4398 171.696 23.2333 172.241 22.8201C172.785 22.407 173.137 21.792 173.297 20.9752Z" fill="white"/>
<path d="M89.303 35.1397C92.8988 35.1397 95.2691 37.9821 95.2691 42.3727C95.2691 46.7754 92.9126 49.6041 89.3565 49.6041C87.5184 49.7002 85.787 48.7375 84.8987 47.1253H84.8315V54.1428H81.9233V35.2879H84.7383V37.6444H84.7918C85.7194 36.0424 87.4527 35.08 89.303 35.1397ZM104.897 35.1397C108.493 35.1397 110.863 37.9821 110.863 42.3727C110.863 46.7754 108.506 49.6041 104.95 49.6041C103.112 49.7002 101.381 48.7375 100.492 47.1253H100.425V54.1428H97.517V35.2879H100.332V37.6444H100.385C101.313 36.0424 103.046 35.08 104.897 35.1397ZM125.775 29.6992C129.881 29.6992 132.696 32.0022 132.791 35.3551H129.855C129.68 33.4158 128.076 32.2452 125.734 32.2452C123.391 32.2452 121.788 33.4296 121.788 35.1534C121.788 36.5272 122.812 37.3356 125.317 37.9545L127.458 38.4802C131.445 39.4231 133.101 41.0247 133.101 43.8671C133.101 47.5027 130.205 49.7797 125.599 49.7797C121.29 49.7797 118.38 47.5562 118.192 44.0413L121.169 44.0414C121.384 45.9685 123.257 47.2338 125.815 47.2338C128.266 47.2338 130.03 45.9685 130.03 44.2309C130.03 42.7225 128.966 41.8194 126.447 41.2005L123.929 40.5938C120.361 39.7319 118.704 38.0631 118.704 35.3551C118.704 32.0022 121.626 29.6992 125.775 29.6992ZM150.352 35.1137C154.459 35.1137 157.073 37.9148 157.073 42.3727C157.073 46.8427 154.473 49.6316 150.352 49.6316C146.231 49.6316 143.632 46.8426 143.632 42.3727C143.632 37.9149 146.258 35.1137 150.352 35.1137ZM173.901 35.1137C177.821 35.1137 180.286 37.8064 180.286 42.1022V43.0985H170.279V43.2743C170.186 44.3291 170.55 45.3731 171.279 46.1409C172.008 46.9088 173.032 47.3263 174.091 47.2873C175.502 47.4196 176.832 46.6092 177.362 45.2946L180.124 45.2946C179.733 47.8665 177.228 49.6316 174.023 49.6316C169.902 49.6316 167.344 46.8701 167.344 42.4399C167.344 37.9959 169.916 35.1137 173.901 35.1137ZM139.378 31.9351V35.2879H142.072V37.5909H139.378V45.4015C139.378 46.6149 139.917 47.1804 141.101 47.1804C141.421 47.1748 141.74 47.1523 142.058 47.1131V49.4023C141.525 49.5018 140.984 49.5469 140.443 49.5368C137.574 49.5368 136.456 48.4594 136.456 45.7117V37.5909H134.396V35.2879H136.456V31.9351H139.378ZM73.101 30.0232L80.117 49.4559H76.9261L75.1488 44.2034H67.7417L65.9628 49.4559H62.8254L69.8414 30.0232H73.101ZM165.719 35.1397C166.054 35.1385 166.388 35.1749 166.716 35.2482V37.9684C166.292 37.8391 165.851 37.7797 165.409 37.7926C164.554 37.7579 163.726 38.0987 163.144 38.7254C162.561 39.3521 162.282 40.2021 162.378 41.0523V49.4558H159.47V35.2879H162.244V37.6994H162.311C162.698 36.147 164.12 35.0786 165.719 35.1397ZM150.352 37.5099C147.995 37.5099 146.595 39.3285 146.595 42.3727C146.595 45.4428 147.995 47.2339 150.352 47.2339C152.708 47.2339 154.109 45.4428 154.109 42.3727C154.109 39.3147 152.708 37.5099 150.352 37.5099ZM88.5358 37.6184C86.3138 37.6184 84.8193 39.544 84.8193 42.3727C84.8193 45.2273 86.3138 47.1391 88.5358 47.1391C90.7976 47.1391 92.2799 45.2671 92.2799 42.3727C92.2799 39.5042 90.7976 37.6184 88.5358 37.6184ZM104.13 37.6184C101.908 37.6184 100.413 39.544 100.413 42.3727C100.413 45.2273 101.908 47.1391 104.13 47.1391C106.391 47.1391 107.874 45.2671 107.874 42.3727C107.874 39.5042 106.391 37.6184 104.13 37.6184ZM71.4858 33.2554H71.4048L68.5088 41.7797H74.3802L71.4858 33.2554ZM173.901 37.4702C172.945 37.4645 172.025 37.8411 171.348 38.5163C170.67 39.1916 170.291 40.1095 170.293 41.0661H177.376C177.429 40.1183 177.084 39.1914 176.424 38.5088C175.765 37.8262 174.85 37.4498 173.901 37.4702Z" fill="white"/>
<rect x="0.782438" y="1.46066" width="201.869" height="61.0302" rx="8.60682" stroke="#A6A6A6" stroke-width="1.56488"/>
</svg>
