<svg width="204" height="63" viewBox="0 0 204 63" fill="none" xmlns="http://www.w3.org/2000/svg">
<rect x="0.782438" y="0.782438" width="201.869" height="61.0302" rx="8.60682" fill="black"/>
<path fill-rule="evenodd" clip-rule="evenodd" d="M14.9954 11.8802C14.5401 12.3622 14.2725 13.1087 14.2725 14.0773V48.658C14.2725 49.6266 14.5401 50.3731 14.9954 50.855L15.1112 50.9677L34.4828 31.5961V31.1392L15.1112 11.7676L14.9954 11.8802Z" fill="#00D7FE"/>
<mask id="mask0_3861:5643" style="mask-type:alpha" maskUnits="userSpaceOnUse" x="34" y="24" width="17" height="15">
<path d="M40.9383 38.0564L34.4832 31.5966V31.1396L40.9414 24.6814L48.7376 29.11C50.9222 30.3525 50.9222 32.3837 48.7376 33.6247L41.0869 37.9719L40.9383 38.0564Z" fill="white"/>
</mask>
<g mask="url(#mask0_3861:5643)">
<path fill-rule="evenodd" clip-rule="evenodd" d="M40.9383 38.0564L34.4832 31.5966V31.1396L40.9414 24.6814L48.7376 29.11C50.9222 30.3525 50.9222 32.3837 48.7376 33.6247L41.0869 37.9719L40.9383 38.0564Z" fill="url(#paint0_linear_3861:5643)"/>
</g>
<mask id="mask1_3861:5643" style="mask-type:alpha" maskUnits="userSpaceOnUse" x="14" y="31" width="28" height="21">
<path d="M41.0868 37.9715L34.483 31.3677L14.9956 50.8551C15.717 51.6172 16.9063 51.7111 18.2459 50.9505L41.0868 37.9715Z" fill="white"/>
</mask>
<g mask="url(#mask1_3861:5643)">
<path fill-rule="evenodd" clip-rule="evenodd" d="M41.0868 37.9715L34.483 31.3677L14.9956 50.8551C15.717 51.6172 16.9063 51.7111 18.2459 50.9505L41.0868 37.9715Z" fill="url(#paint1_linear_3861:5643)"/>
</g>
<mask id="mask2_3861:5643" style="mask-type:alpha" maskUnits="userSpaceOnUse" x="14" y="11" width="28" height="21">
<path d="M41.0868 24.7641L18.2459 11.785C16.9063 11.0244 15.717 11.1183 14.9956 11.8804L34.483 31.3678L41.0868 24.7641Z" fill="white"/>
</mask>
<g mask="url(#mask2_3861:5643)">
<path fill-rule="evenodd" clip-rule="evenodd" d="M41.0868 24.7641L18.2459 11.785C16.9063 11.0244 15.717 11.1183 14.9956 11.8804L34.483 31.3678L41.0868 24.7641Z" fill="url(#paint2_linear_3861:5643)"/>
</g>
<path fill-rule="evenodd" clip-rule="evenodd" d="M162.812 48.5088H165.732V28.9463H162.812V48.5088ZM189.113 35.993L185.766 44.4746H185.666L182.192 35.993H179.046L184.256 47.8469L181.286 54.4413H184.332L192.36 35.993H189.113ZM172.554 46.2867C171.596 46.2867 170.263 45.8094 170.263 44.6264C170.263 43.1163 171.924 42.5373 173.358 42.5373C174.643 42.5373 175.245 42.8143 176.026 43.1914C175.799 45.0035 174.239 46.2867 172.554 46.2867ZM172.906 35.5658C170.792 35.5658 168.602 36.4969 167.696 38.5609L170.288 39.6423C170.842 38.5609 171.873 38.2073 172.956 38.2073C174.466 38.2073 176.001 39.1133 176.026 40.7252V40.9255C175.497 40.6234 174.366 40.1712 172.981 40.1712C170.187 40.1712 167.343 41.7063 167.343 44.5747C167.343 47.1928 169.633 48.8797 172.2 48.8797C174.164 48.8797 175.245 47.9987 175.926 46.9659H176.026V48.476H178.844V40.9771C178.844 37.5031 176.253 35.5658 172.906 35.5658ZM154.86 38.3747H150.706V31.6692H154.86C157.043 31.6692 158.282 33.4767 158.282 35.0212C158.282 36.5375 157.043 38.3747 154.86 38.3747ZM154.784 28.9463H147.788V48.5088H150.706V41.0976H154.784C158.021 41.0976 161.202 38.7534 161.202 35.0212C161.202 31.289 158.021 28.9463 154.784 28.9463ZM116.631 46.2899C114.614 46.2899 112.926 44.6014 112.926 42.2822C112.926 39.938 114.614 38.2229 116.631 38.2229C118.623 38.2229 120.185 39.938 120.185 42.2822C120.185 44.6014 118.623 46.2899 116.631 46.2899ZM119.983 37.0884H119.883C119.227 36.3075 117.968 35.6018 116.379 35.6018C113.051 35.6018 110.001 38.5249 110.001 42.2822C110.001 46.0129 113.051 48.9126 116.379 48.9126C117.968 48.9126 119.227 48.2068 119.883 47.3993H119.983V48.3571C119.983 50.9047 118.623 52.2661 116.429 52.2661C114.639 52.2661 113.53 50.9798 113.076 49.8953L110.53 50.9547C111.261 52.7199 113.203 54.8873 116.429 54.8873C119.858 54.8873 122.758 52.8702 122.758 47.9549V36.0039H119.983V37.0884ZM124.775 48.5088H127.7V28.9448H124.775V48.5088ZM132.009 42.0553C131.934 39.4842 134.001 38.1728 135.488 38.1728C136.649 38.1728 137.632 38.7518 137.959 39.5844L132.009 42.0553ZM141.085 39.8363C140.532 38.3497 138.841 35.6018 135.388 35.6018C131.959 35.6018 129.111 38.298 129.111 42.2572C129.111 45.9878 131.934 48.9126 135.715 48.9126C138.766 48.9126 140.532 47.0473 141.262 45.9628L138.993 44.4496C138.237 45.5591 137.203 46.2899 135.715 46.2899C134.228 46.2899 133.169 45.6091 132.488 44.2743L141.387 40.5937L141.085 39.8363ZM70.1841 37.6439V40.4669H76.9397C76.7378 42.0553 76.2089 43.2149 75.4029 44.0223C74.4186 45.0051 72.8804 46.088 70.1841 46.088C66.0246 46.088 62.7713 42.736 62.7713 38.5766C62.7713 34.4156 66.0246 31.0636 70.1841 31.0636C72.4281 31.0636 74.0665 31.9462 75.2762 33.0807L77.2683 31.0887C75.5782 29.4753 73.3357 28.239 70.1841 28.239C64.4864 28.239 59.6963 32.8789 59.6963 38.5766C59.6963 44.2743 64.4864 48.9126 70.1841 48.9126C73.2591 48.9126 75.5782 47.9048 77.3935 46.0129C79.2588 44.1475 79.8394 41.5264 79.8394 39.4075C79.8394 38.7518 79.7893 38.1478 79.6876 37.6439H70.1841ZM87.5213 46.2899C85.5042 46.2899 83.7641 44.6264 83.7641 42.2572C83.7641 39.8613 85.5042 38.2229 87.5213 38.2229C89.5369 38.2229 91.277 39.8613 91.277 42.2572C91.277 44.6264 89.5369 46.2899 87.5213 46.2899ZM87.5213 35.6018C83.8392 35.6018 80.8393 38.3998 80.8393 42.2572C80.8393 46.088 83.8392 48.9126 87.5213 48.9126C91.2019 48.9126 94.2018 46.088 94.2018 42.2572C94.2018 38.3998 91.2019 35.6018 87.5213 35.6018ZM102.095 46.2899C100.078 46.2899 98.3378 44.6264 98.3378 42.2572C98.3378 39.8613 100.078 38.2229 102.095 38.2229C104.112 38.2229 105.851 39.8613 105.851 42.2572C105.851 44.6264 104.112 46.2899 102.095 46.2899ZM102.095 35.6018C98.4144 35.6018 95.4146 38.3998 95.4146 42.2572C95.4146 46.088 98.4144 48.9126 102.095 48.9126C105.776 48.9126 108.775 46.088 108.775 42.2572C108.775 38.3998 105.776 35.6018 102.095 35.6018Z" fill="#FFFFFE"/>
<path d="M68.2519 19.5815C67.9126 20.0675 67.4381 20.432 66.8284 20.675C66.2232 20.9134 65.5172 21.0326 64.7103 21.0326C63.8942 21.0326 63.1699 20.8423 62.5372 20.4618C61.9045 20.0767 61.414 19.5311 61.0655 18.8251C60.7217 18.119 60.5452 17.3007 60.536 16.37V15.4967C60.536 13.9883 60.8867 12.8193 61.5882 11.9894C62.2942 11.1596 63.2845 10.7447 64.559 10.7447C65.6043 10.7447 66.4455 11.0129 67.0828 11.5493C67.7201 12.0811 68.1098 12.8376 68.2519 13.8187H66.9315C66.6839 12.4937 65.8954 11.8313 64.5659 11.8313C63.681 11.8313 63.0094 12.143 62.5509 12.7665C62.0971 13.3855 61.8678 14.284 61.8632 15.4623V16.2806C61.8632 17.4038 62.12 18.2978 62.6335 18.9626C63.1469 19.6228 63.8415 19.9529 64.7172 19.9529C65.2123 19.9529 65.6455 19.8979 66.0169 19.7878C66.3882 19.6778 66.6954 19.4921 66.9384 19.2308V16.9821H64.6209V15.9093H68.2519V19.5815ZM75.6965 16.2669H71.3572V19.8153H76.398V20.895H70.0368V10.8823H76.3292V11.9688H71.3572V15.1872H75.6965V16.2669ZM84.6747 11.9688H81.4563V20.895H80.1429V11.9688H76.9313V10.8823H84.6747V11.9688ZM89.9501 20.895H88.6298V10.8823H89.9501V20.895ZM98.6601 11.9688H95.4417V20.895H94.1283V11.9688H90.9167V10.8823H98.6601V11.9688ZM110.221 16.2119C110.221 17.193 110.056 18.0503 109.726 18.7838C109.396 19.5128 108.928 20.0698 108.323 20.4549C107.718 20.84 107.012 21.0326 106.205 21.0326C105.416 21.0326 104.717 20.84 104.107 20.4549C103.498 20.0652 103.023 19.5128 102.684 18.7976C102.349 18.0778 102.177 17.2457 102.168 16.3013V15.5792C102.168 14.6164 102.336 13.766 102.67 13.0279C103.005 12.2897 103.477 11.7258 104.087 11.3361C104.701 10.9419 105.403 10.7447 106.191 10.7447C106.993 10.7447 107.699 10.9396 108.309 11.3293C108.924 11.7144 109.396 12.276 109.726 13.0141C110.056 13.7476 110.221 14.6027 110.221 15.5792V16.2119ZM108.908 15.5654C108.908 14.378 108.669 13.468 108.192 12.8353C107.716 12.198 107.048 11.8794 106.191 11.8794C105.357 11.8794 104.699 12.198 104.217 12.8353C103.741 13.468 103.495 14.3482 103.482 15.476V16.2119C103.482 17.3626 103.722 18.268 104.204 18.9282C104.69 19.5838 105.357 19.9116 106.205 19.9116C107.058 19.9116 107.718 19.6022 108.185 18.9832C108.653 18.3597 108.894 17.468 108.908 16.3081V15.5654ZM119.474 20.895H118.147L113.106 13.1791V20.895H111.779V10.8823H113.106L118.161 18.6325V10.8823H119.474V20.895Z" fill="white"/>
<rect x="0.782438" y="0.782438" width="201.869" height="61.0302" rx="8.60682" stroke="#A6A6A6" stroke-width="1.56488"/>
<defs>
<linearGradient id="paint0_linear_3861:5643" x1="47.3164" y1="31.3686" x2="34.4832" y2="31.3686" gradientUnits="userSpaceOnUse">
<stop stop-color="#FFBC00"/>
<stop offset="1" stop-color="#FFDA03"/>
</linearGradient>
<linearGradient id="paint1_linear_3861:5643" x1="37.4979" y1="37.5815" x2="20.7483" y2="51.3877" gradientUnits="userSpaceOnUse">
<stop stop-color="#E22652"/>
<stop offset="1" stop-color="#FF3A44"/>
</linearGradient>
<linearGradient id="paint2_linear_3861:5643" x1="17.9464" y1="14.2264" x2="29.1138" y2="24.0459" gradientUnits="userSpaceOnUse">
<stop stop-color="#0ED574"/>
<stop offset="1" stop-color="#07F076"/>
</linearGradient>
</defs>
</svg>
